# xmcd
# 
# Track frame offsets:
#     150
#     13847
#     42632
# 
# Disc length: 694
# 
# Revision: 0
# Processed by: cddbd v1.5.2PL0 Copyright (c) Steve Scherf et al.
# Submitted via: fre:ac v1.0.17
# 
DISCID=2202b403
DTITLE=Augie March - Heartbeat And Sails
DYEAR=2000
DGENRE=
TTITLE0=Heartbeat And Sails
TTITLE1=Tulip
TTITLE2=Believe
EXTD=
EXTT0=
EXTT1=
EXTT2=
PLAYORDER=
